<?xml version="1.0" encoding="utf-8"?>
<!-- Svg Vector Icons : http://www.onlinewebfonts.com/icon -->
<!DOCTYPE svg PUBLIC "-//W3C//DTD SVG 1.1//EN" "http://www.w3.org/Graphics/SVG/1.1/DTD/svg11.dtd">
<svg version="1.1" xmlns="http://www.w3.org/2000/svg" xmlns:xlink="http://www.w3.org/1999/xlink" x="0px" y="0px" viewBox="0 0 1000 1000" enable-background="new 0 0 1000 1000" xml:space="preserve">
<metadata> Svg Vector Icons : http://www.onlinewebfonts.com/icon </metadata>
<g><path d="M635.9,913.9H353.6c-33,0-59.9-30.3-59.9-62.7V667.9c0-8.3,12.2-15,20.6-15c8.5,0,20.6,6.7,20.6,15v174c0,15.8,13.1,28.6,29.2,28.6h271.6c16.1,0,29.2-12.9,29.2-28.6v-174c0-8.3,12.2-15,20.6-15c8.4,0,20.6,6.7,20.6,15v183.3C706.3,883.6,668.9,913.9,635.9,913.9L635.9,913.9z M930.3,783.2H766c-8.5,0-15.3-6.8-15.3-15.1V608.6H249.4v159.6c0,8.3-6.9,15.1-15.3,15.1H69.8c-33,0-59.8-26.3-59.8-58.7V302.1c0-32.4,26.8-63.1,59.8-63.1H250v-94.2c0-7.9,1.6-15.6,4.7-22.9c9.4-21.8,28.4-35.8,52.4-35.8h385.7c0.7,0,2.9,0.2,3.5,0.3c3.2,0.2,5.9,0.4,8.4,0.9c6.3,1.3,9.7,3.6,15.6,7.1c0.2,0.1,0.4,0.2,0.6,0.3c4.4,2.6,8.1,5.4,11.1,8.4l0,0c3.4,3.3,5.5,5.8,7.3,8.4c6.6,9.4,10.2,20.1,10.6,31.3c0.1,0.5,0.1,1.1,0.1,1.7V239h180.2c33,0,59.8,30.7,59.8,63.1v407.7C990.1,742.3,963.3,783.2,930.3,783.2L930.3,783.2z M792.9,738.5h124.3c16.1,0,29.1-12.9,29.1-28.6V309.4c0-15.8-13.1-28.6-29.1-28.6H81.5c-16.1,0-29.2,12.8-29.2,28.6v401.9c0,15.8,13.1,28.6,29.2,28.6h124.3V580c0-8.3,6.9-15,15.3-15h556.5c8.5,0,15.3,6.7,15.3,15V738.5L792.9,738.5z M292.6,239h414.9v-81.5c-0.1-0.4-0.1-0.9-0.1-1.3c-0.1-5.5-1.8-11-5-15.6c-1.1-1.5-2-2.6-3-3.7c-0.2-0.2-0.5-0.4-0.7-0.6c-1.4-1.3-3.2-2.7-5.5-4c-3.1-1.8-6.1-3-9-3.6c-1.1-0.2-2.4-0.2-3.6-0.3l-358.8-0.2c-11.7,0-22.3,6.9-26.9,17.5c-1.5,3.6-2.3,7.3-2.3,11.1V239L292.6,239z"/><path d="M180.4,356.8c-25,0-45.3,20-45.3,44.5c0,24.6,20.3,44.5,45.3,44.5c25.1,0,45.3-19.9,45.3-44.5C225.8,376.8,205.5,356.8,180.4,356.8"/></g>
</svg>